<?xml version="1.0" standalone="no"?>
<!DOCTYPE svg PUBLIC "-//W3C//DTD SVG 1.1//EN" "http://www.w3.org/Graphics/SVG/1.1/DTD/svg11.dtd">
<!--Generator: Xara Designer (www.xara.com), SVG filter version: 6.5.0.22-->
<svg fill="none" fill-rule="evenodd" stroke="black" stroke-width="0.501" stroke-linejoin="bevel" stroke-miterlimit="10" font-family="Times New Roman" font-size="16" style="font-variant-ligatures:none" xmlns:xlink="http://www.w3.org/1999/xlink" xmlns="http://www.w3.org/2000/svg" version="1.1" overflow="visible" width="12.349pt" height="12.349pt" viewBox="343.583 -1702.52 12.349 12.349">
 <defs>
	</defs>
 <g id="Page background" transform="scale(1 -1)"/>
 <g id="MouseOff" transform="scale(1 -1)">
  <g id="Group" fill-rule="nonzero" stroke-linejoin="miter" stroke="none" stroke-width="0.024" fill="#000000">
   <path d="M 348.857,1696.73 L 343.969,1696.73 C 343.756,1696.73 343.583,1696.91 343.583,1697.12 C 343.583,1697.33 343.756,1697.5 343.969,1697.5 L 348.857,1697.5 C 349.07,1697.5 349.243,1697.33 349.243,1697.12 C 349.243,1696.91 349.07,1696.73 348.857,1696.73 Z" marker-start="none" marker-end="none"/>
   <path d="M 346.928,1694.8 C 346.828,1694.8 346.73,1694.84 346.655,1694.92 C 346.505,1695.07 346.505,1695.31 346.655,1695.46 L 348.312,1697.12 L 346.655,1698.78 C 346.505,1698.93 346.505,1699.17 346.655,1699.32 C 346.806,1699.47 347.05,1699.47 347.201,1699.32 L 349.13,1697.39 C 349.281,1697.24 349.281,1697 349.13,1696.85 L 347.201,1694.92 C 347.125,1694.84 347.026,1694.8 346.928,1694.8 Z" marker-start="none" marker-end="none"/>
   <path d="M 351.815,1690.17 C 351.248,1690.17 350.786,1690.63 350.786,1691.2 L 350.786,1700.46 C 350.786,1700.9 351.067,1701.3 351.483,1701.44 L 354.575,1702.47 C 355.266,1702.68 355.932,1702.17 355.932,1701.49 L 355.932,1692.23 C 355.932,1691.79 355.652,1691.4 355.236,1691.25 L 352.144,1690.22 C 352.031,1690.19 351.926,1690.17 351.815,1690.17 Z M 354.903,1701.75 C 354.87,1701.75 354.842,1701.75 354.811,1701.74 L 351.732,1700.71 C 351.631,1700.68 351.558,1700.57 351.558,1700.46 L 351.558,1691.2 C 351.558,1691.03 351.749,1690.91 351.908,1690.96 L 354.986,1691.98 C 355.087,1692.02 355.16,1692.12 355.16,1692.23 L 355.16,1701.49 C 355.16,1701.63 355.045,1701.75 354.903,1701.75 Z" marker-start="none" marker-end="none"/>
   <path d="M 348.086,1699.95 C 347.872,1699.95 347.7,1700.12 347.7,1700.33 L 347.7,1701.11 C 347.7,1701.89 348.333,1702.52 349.114,1702.52 L 354.903,1702.52 C 355.116,1702.52 355.289,1702.35 355.289,1702.14 C 355.289,1701.92 355.116,1701.75 354.903,1701.75 L 349.114,1701.75 C 348.76,1701.75 348.471,1701.46 348.471,1701.11 L 348.471,1700.33 C 348.471,1700.12 348.299,1699.95 348.086,1699.95 Z" marker-start="none" marker-end="none"/>
   <path d="M 351.172,1691.72 L 349.114,1691.72 C 348.333,1691.72 347.7,1692.35 347.7,1693.13 L 347.7,1693.9 C 347.7,1694.12 347.872,1694.29 348.086,1694.29 C 348.299,1694.29 348.471,1694.12 348.471,1693.9 L 348.471,1693.13 C 348.471,1692.78 348.76,1692.49 349.114,1692.49 L 351.172,1692.49 C 351.385,1692.49 351.558,1692.32 351.558,1692.1 C 351.558,1691.89 351.385,1691.72 351.172,1691.72 Z" marker-start="none" marker-end="none"/>
  </g>
 </g>
 <g id="Layer_2" transform="scale(1 -1)"/>
</svg>
