<?xml version="1.0" standalone="no"?>
<!DOCTYPE svg PUBLIC "-//W3C//DTD SVG 1.1//EN" "http://www.w3.org/Graphics/SVG/1.1/DTD/svg11.dtd">
<!--Generator: Xara Designer (www.xara.com), SVG filter version: 6.5.0.22-->
<svg fill="none" fill-rule="evenodd" stroke="black" stroke-width="0.501" stroke-linejoin="bevel" stroke-miterlimit="10" font-family="Times New Roman" font-size="16" style="font-variant-ligatures:none" xmlns:xlink="http://www.w3.org/1999/xlink" xmlns="http://www.w3.org/2000/svg" version="1.1" overflow="visible" width="12.349pt" height="15.95pt" viewBox="343.583 -1674.34 12.349 15.95">
 <defs>
	</defs>
 <g id="Page background" transform="scale(1 -1)"/>
 <g id="MouseOff" transform="scale(1 -1)">
  <g id="Group" fill-rule="nonzero" stroke-linejoin="miter" stroke="none" stroke-width="0.257" fill="#000000">
   <path d="M 355.857,1664.23 L 354.389,1665.69 L 354.389,1674.08 C 354.389,1674.22 354.273,1674.34 354.131,1674.34 L 343.84,1674.34 C 343.698,1674.34 343.583,1674.22 343.583,1674.08 L 343.583,1660.18 C 343.583,1660.04 343.698,1659.93 343.84,1659.93 L 351.301,1659.93 L 351.301,1658.64 C 351.301,1658.5 351.416,1658.39 351.558,1658.39 L 354.131,1658.39 C 354.273,1658.39 354.389,1658.5 354.389,1658.64 L 354.389,1659.31 L 355.857,1660.78 C 355.905,1660.82 355.932,1660.89 355.932,1660.96 L 355.932,1664.04 C 355.932,1664.11 355.905,1664.18 355.857,1664.23 Z M 351.301,1664.04 L 351.301,1660.44 L 344.097,1660.44 L 344.097,1673.82 L 353.874,1673.82 L 353.874,1662.5 L 353.616,1662.5 C 353.475,1662.5 353.36,1662.62 353.36,1662.76 L 353.36,1664.04 C 353.36,1664.61 352.897,1665.07 352.33,1665.07 C 351.763,1665.07 351.301,1664.61 351.301,1664.04 Z M 355.417,1661.06 L 353.949,1659.6 C 353.9,1659.55 353.874,1659.48 353.874,1659.41 L 353.874,1658.9 L 351.815,1658.9 L 351.815,1664.04 C 351.815,1664.33 352.046,1664.56 352.33,1664.56 C 352.613,1664.56 352.844,1664.33 352.844,1664.04 L 352.844,1662.76 C 352.844,1662.33 353.191,1661.99 353.616,1661.99 L 354.131,1661.99 C 354.273,1661.99 354.389,1662.1 354.389,1662.24 L 354.389,1664.97 L 355.417,1663.94 Z" marker-start="none" marker-end="none"/>
   <path d="M 349.682,1670.66 C 349.582,1670.76 349.419,1670.76 349.318,1670.66 L 348.214,1669.55 L 347.881,1669.89 C 347.78,1669.99 347.618,1669.99 347.518,1669.89 L 346.231,1668.6 C 346.158,1668.53 346.135,1668.42 346.176,1668.32 C 346.215,1668.22 346.309,1668.16 346.413,1668.16 L 351.558,1668.16 C 351.662,1668.16 351.756,1668.22 351.796,1668.32 C 351.836,1668.42 351.814,1668.53 351.74,1668.6 Z M 347.034,1668.68 L 347.7,1669.34 L 348.365,1668.68 Z M 349.092,1668.68 L 348.578,1669.19 L 349.5,1670.11 L 350.937,1668.68 Z" marker-start="none" marker-end="none"/>
   <path d="M 347.7,1670.22 C 348.125,1670.22 348.471,1670.57 348.471,1670.99 C 348.471,1671.42 348.125,1671.76 347.7,1671.76 C 347.274,1671.76 346.928,1671.42 346.928,1670.99 C 346.928,1670.57 347.274,1670.22 347.7,1670.22 Z M 347.7,1671.25 C 347.841,1671.25 347.957,1671.13 347.957,1670.99 C 347.957,1670.85 347.841,1670.73 347.7,1670.73 C 347.557,1670.73 347.442,1670.85 347.442,1670.99 C 347.442,1671.13 347.557,1671.25 347.7,1671.25 Z" marker-start="none" marker-end="none"/>
   <path d="M 353.102,1666.62 C 353.244,1666.62 353.36,1666.73 353.36,1666.87 L 353.36,1673.05 C 353.36,1673.19 353.244,1673.31 353.102,1673.31 L 344.869,1673.31 C 344.727,1673.31 344.612,1673.19 344.612,1673.05 L 344.612,1666.87 C 344.612,1666.73 344.727,1666.62 344.869,1666.62 Z M 345.126,1672.79 L 352.844,1672.79 L 352.844,1667.13 L 345.126,1667.13 Z" marker-start="none" marker-end="none"/>
   <path d="M 344.869,1666.1 L 353.102,1666.1 L 353.102,1665.59 L 344.869,1665.59 Z" marker-start="none" marker-end="none"/>
   <path d="M 344.869,1665.07 L 350.786,1665.07 L 350.786,1664.56 L 344.869,1664.56 Z" marker-start="none" marker-end="none"/>
   <path d="M 344.869,1664.04 L 350.786,1664.04 L 350.786,1663.53 L 344.869,1663.53 Z" marker-start="none" marker-end="none"/>
   <path d="M 344.869,1663.02 L 350.786,1663.02 L 350.786,1662.5 L 344.869,1662.5 Z" marker-start="none" marker-end="none"/>
   <path d="M 344.869,1661.99 L 350.786,1661.99 L 350.786,1661.47 L 344.869,1661.47 Z" marker-start="none" marker-end="none"/>
  </g>
 </g>
 <g id="Layer_2" transform="scale(1 -1)"/>
</svg>
