<?xml version="1.0" standalone="no"?>
<!DOCTYPE svg PUBLIC "-//W3C//DTD SVG 1.1//EN" "http://www.w3.org/Graphics/SVG/1.1/DTD/svg11.dtd">
<!--Generator: Xara Designer (www.xara.com), SVG filter version: 6.5.0.22-->
<svg fill="none" fill-rule="evenodd" stroke="black" stroke-width="0.501" stroke-linejoin="bevel" stroke-miterlimit="10" font-family="Times New Roman" font-size="16" style="font-variant-ligatures:none" xmlns:xlink="http://www.w3.org/1999/xlink" xmlns="http://www.w3.org/2000/svg" version="1.1" overflow="visible" width="12.349pt" height="12.484pt" viewBox="343.583 -1764.71 12.349 12.484">
 <defs>
	</defs>
 <g id="Page background" transform="scale(1 -1)"/>
 <g id="MouseOff" transform="scale(1 -1)">
  <g id="Group" fill-rule="nonzero" stroke-linejoin="miter" stroke="none" stroke-width="0.025" fill="#000000">
   <path d="M 349.825,1760.28 L 345.143,1760.28 C 345.042,1760.28 344.96,1760.2 344.96,1760.1 C 344.96,1760 345.042,1759.92 345.143,1759.92 L 349.825,1759.92 C 349.926,1759.92 350.008,1760 350.008,1760.1 C 350.008,1760.2 349.926,1760.28 349.825,1760.28 Z" marker-start="none" marker-end="none"/>
   <path d="M 349.825,1759 L 345.143,1759 C 345.042,1759 344.96,1758.92 344.96,1758.82 C 344.96,1758.71 345.042,1758.63 345.143,1758.63 L 349.825,1758.63 C 349.926,1758.63 350.008,1758.71 350.008,1758.82 C 350.008,1758.92 349.926,1759 349.825,1759 Z" marker-start="none" marker-end="none"/>
   <path d="M 349.825,1757.71 L 345.143,1757.71 C 345.042,1757.71 344.96,1757.63 344.96,1757.53 C 344.96,1757.43 345.042,1757.35 345.143,1757.35 L 349.825,1757.35 C 349.926,1757.35 350.008,1757.43 350.008,1757.53 C 350.008,1757.63 349.926,1757.71 349.825,1757.71 Z" marker-start="none" marker-end="none"/>
   <path d="M 350.008,1756.24 C 350.008,1756.35 349.926,1756.43 349.825,1756.43 L 345.143,1756.43 C 345.042,1756.43 344.96,1756.35 344.96,1756.24 C 344.96,1756.14 345.042,1756.06 345.143,1756.06 L 349.825,1756.06 C 349.926,1756.06 350.008,1756.14 350.008,1756.24 Z" marker-start="none" marker-end="none"/>
   <path d="M 345.143,1754.54 C 345.042,1754.54 344.96,1754.46 344.96,1754.36 C 344.96,1754.26 345.042,1754.18 345.143,1754.18 L 347.489,1754.18 C 347.59,1754.18 347.672,1754.26 347.672,1754.36 C 347.672,1754.46 347.59,1754.54 347.489,1754.54 Z" marker-start="none" marker-end="none"/>
   <path d="M 351.933,1762.45 L 351.933,1763.04 C 351.933,1763.27 351.748,1763.45 351.522,1763.45 L 347.769,1763.45 C 347.543,1763.45 347.358,1763.27 347.358,1763.04 L 347.358,1762.45 C 347.358,1762.22 347.543,1762.04 347.769,1762.04 L 348.085,1762.04 C 348.187,1762.04 348.266,1762.12 348.266,1762.22 C 348.266,1762.32 348.187,1762.4 348.085,1762.4 L 347.769,1762.4 C 347.744,1762.4 347.725,1762.42 347.725,1762.45 L 347.725,1763.04 C 347.725,1763.06 347.744,1763.08 347.769,1763.08 L 351.522,1763.08 C 351.546,1763.08 351.565,1763.06 351.565,1763.04 L 351.565,1762.45 C 351.565,1762.42 351.546,1762.4 351.522,1762.4 L 348.939,1762.4 C 348.838,1762.4 348.757,1762.32 348.757,1762.22 C 348.757,1762.12 348.838,1762.04 348.939,1762.04 L 351.522,1762.04 C 351.748,1762.04 351.933,1762.22 351.933,1762.45 Z" marker-start="none" marker-end="none"/>
   <path d="M 353.298,1753.56 C 353.199,1753.56 353.117,1753.48 353.117,1753.38 L 353.117,1753.13 C 353.117,1752.83 352.875,1752.59 352.578,1752.59 L 344.488,1752.59 C 344.189,1752.59 343.948,1752.83 343.948,1753.13 L 343.948,1761.92 C 343.948,1761.96 343.954,1762 343.959,1762.04 L 345.626,1762.04 C 345.974,1762.04 346.257,1762.32 346.257,1762.67 L 346.257,1764.33 C 346.295,1764.34 346.335,1764.34 346.372,1764.34 L 352.578,1764.34 C 352.875,1764.34 353.117,1764.1 353.117,1763.8 L 353.117,1761.37 C 353.117,1761.27 353.199,1761.19 353.298,1761.19 C 353.401,1761.19 353.481,1761.27 353.481,1761.37 L 353.481,1763.8 C 353.481,1764.3 353.077,1764.71 352.578,1764.71 L 346.372,1764.71 C 346.131,1764.71 345.903,1764.61 345.734,1764.44 L 343.846,1762.56 C 343.677,1762.39 343.583,1762.16 343.583,1761.92 L 343.583,1753.13 C 343.583,1752.63 343.99,1752.22 344.488,1752.22 L 352.578,1752.22 C 353.077,1752.22 353.481,1752.63 353.481,1753.13 L 353.481,1753.38 C 353.481,1753.48 353.401,1753.56 353.298,1753.56 Z M 345.892,1764.09 L 345.892,1762.67 C 345.892,1762.52 345.77,1762.4 345.626,1762.4 L 344.206,1762.4 Z" marker-start="none" marker-end="none"/>
   <path d="M 355.804,1758.17 C 355.931,1758.36 355.967,1758.59 355.895,1758.81 C 355.826,1759.03 355.66,1759.2 355.447,1759.27 C 355.304,1759.33 355.209,1759.45 355.204,1759.61 C 355.196,1759.84 355.088,1760.04 354.903,1760.18 C 354.719,1760.31 354.487,1760.35 354.269,1760.29 C 354.123,1760.25 353.971,1760.3 353.877,1760.41 C 353.738,1760.59 353.528,1760.7 353.298,1760.7 C 353.07,1760.7 352.861,1760.59 352.721,1760.41 C 352.628,1760.3 352.474,1760.25 352.331,1760.29 C 352.109,1760.35 351.881,1760.31 351.695,1760.18 C 351.511,1760.04 351.4,1759.84 351.393,1759.61 C 351.389,1759.45 351.295,1759.33 351.152,1759.27 C 350.936,1759.2 350.775,1759.03 350.704,1758.81 C 350.633,1758.59 350.667,1758.36 350.795,1758.17 C 350.88,1758.05 350.88,1757.89 350.795,1757.76 C 350.667,1757.57 350.633,1757.34 350.704,1757.12 C 350.775,1756.91 350.936,1756.74 351.152,1756.66 C 351.295,1756.61 351.389,1756.48 351.393,1756.33 C 351.4,1756.12 351.497,1755.92 351.656,1755.79 C 351.763,1755.7 351.892,1755.65 352.025,1755.63 L 352.025,1753.96 C 352.025,1753.82 352.102,1753.69 352.225,1753.62 C 352.347,1753.56 352.498,1753.56 352.618,1753.63 L 353.287,1754.05 C 353.298,1754.05 353.306,1754.05 353.311,1754.05 L 353.982,1753.63 C 354.101,1753.56 354.253,1753.56 354.377,1753.62 C 354.496,1753.69 354.573,1753.82 354.573,1753.96 L 354.573,1755.63 C 354.707,1755.65 354.835,1755.7 354.94,1755.79 C 355.103,1755.92 355.196,1756.12 355.204,1756.33 C 355.209,1756.48 355.304,1756.61 355.447,1756.66 C 355.66,1756.74 355.826,1756.91 355.895,1757.12 C 355.967,1757.34 355.931,1757.57 355.804,1757.76 C 355.719,1757.89 355.719,1758.05 355.804,1758.17 Z M 354.173,1753.94 L 353.503,1754.35 C 353.378,1754.43 353.219,1754.43 353.096,1754.35 L 352.423,1753.94 C 352.408,1753.93 352.391,1753.94 352.391,1753.96 L 352.391,1755.66 C 352.516,1755.68 352.642,1755.63 352.721,1755.52 C 352.861,1755.34 353.07,1755.24 353.298,1755.24 C 353.528,1755.24 353.738,1755.34 353.877,1755.52 C 353.956,1755.63 354.08,1755.68 354.206,1755.66 L 354.206,1753.96 C 354.206,1753.94 354.188,1753.93 354.173,1753.94 Z M 355.503,1757.56 C 355.566,1757.46 355.582,1757.35 355.546,1757.24 C 355.51,1757.13 355.431,1757.04 355.324,1757.01 C 355.04,1756.9 354.847,1756.64 354.839,1756.34 C 354.836,1756.23 354.789,1756.14 354.707,1756.07 C 354.615,1756 354.492,1755.97 354.371,1756 C 354.08,1756.08 353.774,1755.99 353.589,1755.75 C 353.518,1755.66 353.414,1755.61 353.298,1755.61 C 353.185,1755.61 353.079,1755.66 353.01,1755.75 C 352.869,1755.93 352.654,1756.03 352.433,1756.03 C 352.365,1756.03 352.297,1756.02 352.227,1756 C 352.106,1755.97 351.983,1756 351.892,1756.07 C 351.81,1756.14 351.763,1756.23 351.759,1756.34 C 351.749,1756.64 351.562,1756.9 351.276,1757.01 C 351.168,1757.04 351.086,1757.13 351.051,1757.24 C 351.017,1757.35 351.033,1757.46 351.097,1757.56 C 351.266,1757.81 351.266,1758.13 351.097,1758.38 C 351.033,1758.47 351.017,1758.59 351.051,1758.7 C 351.086,1758.81 351.168,1758.89 351.276,1758.93 C 351.562,1759.03 351.749,1759.29 351.759,1759.6 C 351.763,1759.71 351.818,1759.81 351.911,1759.88 C 352.002,1759.95 352.117,1759.97 352.227,1759.94 C 352.516,1759.85 352.825,1759.95 353.01,1760.19 C 353.079,1760.28 353.185,1760.33 353.298,1760.33 C 353.414,1760.33 353.518,1760.28 353.589,1760.19 C 353.774,1759.95 354.08,1759.85 354.371,1759.94 C 354.48,1759.97 354.595,1759.95 354.687,1759.88 C 354.779,1759.81 354.835,1759.71 354.839,1759.6 C 354.847,1759.29 355.04,1759.03 355.324,1758.93 C 355.431,1758.89 355.51,1758.81 355.546,1758.7 C 355.582,1758.59 355.566,1758.47 355.503,1758.38 C 355.33,1758.13 355.33,1757.81 355.503,1757.56 Z" marker-start="none" marker-end="none"/>
   <path d="M 353.298,1759.5 C 352.455,1759.5 351.768,1758.81 351.768,1757.97 C 351.768,1757.12 352.455,1756.44 353.298,1756.44 C 354.145,1756.44 354.832,1757.12 354.832,1757.97 C 354.832,1758.81 354.145,1759.5 353.298,1759.5 Z M 353.298,1756.8 C 352.654,1756.8 352.133,1757.32 352.133,1757.97 C 352.133,1758.61 352.654,1759.14 353.298,1759.14 C 353.943,1759.14 354.465,1758.61 354.465,1757.97 C 354.465,1757.32 353.943,1756.8 353.298,1756.8 Z" marker-start="none" marker-end="none"/>
  </g>
 </g>
 <g id="Layer_2" transform="scale(1 -1)"/>
</svg>
