<?xml version="1.0" standalone="no"?>
<!DOCTYPE svg PUBLIC "-//W3C//DTD SVG 1.1//EN" "http://www.w3.org/Graphics/SVG/1.1/DTD/svg11.dtd">
<!--Generator: Xara Designer (www.xara.com), SVG filter version: 6.5.0.22-->
<svg fill="none" fill-rule="evenodd" stroke="black" stroke-width="0.501" stroke-linejoin="bevel" stroke-miterlimit="10" font-family="Times New Roman" font-size="16" style="font-variant-ligatures:none" xmlns:xlink="http://www.w3.org/1999/xlink" xmlns="http://www.w3.org/2000/svg" version="1.1" overflow="visible" width="12.349pt" height="12.349pt" viewBox="343.583 -1735.63 12.349 12.349">
 <defs>
	</defs>
 <g id="Page background" transform="scale(1 -1)"/>
 <g id="MouseOff" transform="scale(1 -1)">
  <g id="Group" fill-rule="nonzero" stroke-linejoin="miter" stroke="none" stroke-width="0.199" fill="#000000">
   <path d="M 355.932,1735.63 L 343.583,1735.63 L 343.583,1725.27 L 350.156,1725.27 L 350.156,1723.28 L 354.339,1723.28 L 354.339,1725.27 L 355.932,1725.27 Z M 355.534,1734.03 L 353.144,1734.03 L 353.144,1735.23 L 355.534,1735.23 Z M 352.744,1735.23 L 352.744,1734.03 L 343.981,1734.03 L 343.981,1735.23 Z M 353.941,1723.68 L 353.342,1723.68 L 353.342,1726.26 L 352.945,1726.26 L 352.945,1723.68 L 350.554,1723.68 L 350.554,1725.65 C 350.554,1725.99 350.313,1726.28 349.982,1726.34 L 349.344,1726.45 C 348.776,1726.55 348.364,1727.05 348.364,1727.63 L 348.364,1729.95 C 348.364,1730.11 348.498,1730.25 348.662,1730.25 C 348.827,1730.25 348.961,1730.11 348.961,1729.95 L 348.961,1728.06 C 348.961,1727.62 349.318,1727.26 349.757,1727.26 L 350.598,1727.26 L 351.044,1725.48 L 351.749,1726.18 L 352.455,1725.48 L 352.863,1727.11 C 353.497,1726.83 353.941,1726.2 353.941,1725.47 Z M 350.753,1728.66 C 350.753,1729.2 351.2,1729.65 351.749,1729.65 C 352.298,1729.65 352.744,1729.2 352.744,1728.66 C 352.744,1728.11 352.298,1727.66 351.749,1727.66 C 351.2,1727.66 350.753,1728.11 350.753,1728.66 Z M 351.749,1726.82 L 351.458,1727.26 L 352.041,1727.26 Z M 351.259,1726.26 L 351.027,1727.19 L 351.493,1726.49 Z M 352.472,1727.19 L 352.238,1726.26 L 352.006,1726.49 Z M 354.328,1725.67 C 354.242,1726.61 353.556,1727.38 352.655,1727.6 C 352.953,1727.85 353.144,1728.23 353.144,1728.66 C 353.144,1729.42 352.518,1730.05 351.749,1730.05 C 350.981,1730.05 350.355,1729.42 350.355,1728.66 C 350.355,1728.27 350.517,1727.91 350.775,1727.66 L 349.757,1727.66 C 349.538,1727.66 349.359,1727.84 349.359,1728.06 L 349.359,1729.95 C 349.359,1730.33 349.047,1730.65 348.662,1730.65 C 348.278,1730.65 347.965,1730.33 347.965,1729.95 L 347.965,1727.63 C 347.965,1726.86 348.516,1726.2 349.273,1726.06 L 349.911,1725.94 C 350.047,1725.92 350.145,1725.8 350.153,1725.67 L 343.981,1725.67 L 343.981,1733.64 L 355.534,1733.64 L 355.534,1725.67 Z" marker-start="none" marker-end="none"/>
   <path d="M 347.426,1729.79 L 346.771,1729.14 L 346.771,1729.25 L 344.38,1729.25 L 344.38,1726.86 L 346.771,1726.86 L 346.771,1728.57 L 347.707,1729.51 Z M 346.371,1727.26 L 344.778,1727.26 L 344.778,1728.85 L 346.371,1728.85 L 346.371,1728.74 L 345.574,1727.94 L 345.118,1728.4 L 344.836,1728.12 L 345.574,1727.38 L 346.371,1728.17 Z" marker-start="none" marker-end="none"/>
   <path d="M 346.771,1731.92 L 346.771,1732.04 L 344.38,1732.04 L 344.38,1729.65 L 346.771,1729.65 L 346.771,1731.36 L 347.707,1732.3 L 347.426,1732.58 Z M 346.371,1730.05 L 344.778,1730.05 L 344.778,1731.64 L 346.371,1731.64 L 346.371,1731.53 L 345.574,1730.73 L 345.118,1731.19 L 344.836,1730.91 L 345.574,1730.17 L 346.371,1730.96 Z" marker-start="none" marker-end="none"/>
   <path d="M 349.957,1731.64 L 355.135,1731.64 L 355.135,1731.24 L 349.957,1731.24 Z" marker-start="none" marker-end="none"/>
   <path d="M 349.957,1730.85 L 355.135,1730.85 L 355.135,1730.45 L 349.957,1730.45 Z" marker-start="none" marker-end="none"/>
   <path d="M 354.737,1730.05 L 355.135,1730.05 L 355.135,1729.65 L 354.737,1729.65 Z" marker-start="none" marker-end="none"/>
   <path d="M 353.941,1730.05 L 354.339,1730.05 L 354.339,1729.65 L 353.941,1729.65 Z" marker-start="none" marker-end="none"/>
   <path d="M 353.144,1730.05 L 353.542,1730.05 L 353.542,1729.65 L 353.144,1729.65 Z" marker-start="none" marker-end="none"/>
   <path d="M 351.55,1725.67 L 351.948,1725.67 L 351.948,1725.27 L 351.55,1725.27 Z" marker-start="none" marker-end="none"/>
   <path d="M 351.55,1724.87 L 351.948,1724.87 L 351.948,1724.47 L 351.55,1724.47 Z" marker-start="none" marker-end="none"/>
   <path d="M 344.38,1734.83 L 344.778,1734.83 L 344.778,1734.43 L 344.38,1734.43 Z" marker-start="none" marker-end="none"/>
   <path d="M 345.176,1734.83 L 345.574,1734.83 L 345.574,1734.43 L 345.176,1734.43 Z" marker-start="none" marker-end="none"/>
   <path d="M 345.973,1734.83 L 346.371,1734.83 L 346.371,1734.43 L 345.973,1734.43 Z" marker-start="none" marker-end="none"/>
  </g>
 </g>
 <g id="Layer_2" transform="scale(1 -1)"/>
</svg>
