<?xml version="1.0" encoding="UTF-8" standalone="no"?>
<!DOCTYPE svg PUBLIC "-//W3C//DTD SVG 1.1//EN" "http://www.w3.org/Graphics/SVG/1.1/DTD/svg11.dtd">
<svg width="100%" height="100%" viewBox="0 0 155 101" version="1.1" xmlns="http://www.w3.org/2000/svg" xmlns:xlink="http://www.w3.org/1999/xlink" xml:space="preserve" xmlns:serif="http://www.serif.com/" style="fill-rule:evenodd;clip-rule:evenodd;stroke-linejoin:round;stroke-miterlimit:2;">
    <g transform="matrix(1,0,0,1,-704,214)">
        <g transform="matrix(0.509896,0,0,0.509896,-901.88,-2612.2)">
            <g transform="matrix(4.16667,0,0,4.16667,0,4713.89)">
                <path d="M757.581,28.119L755.863,28.119L755.863,26.718L760.889,26.718L760.889,28.119L759.168,28.119L759.168,32.503L757.581,32.503L757.581,28.119Z" style="fill:white;fill-rule:nonzero;"/>
            </g>
            <g transform="matrix(4.16667,0,0,4.16667,0,4712.85)">
                <path d="M761.404,26.718L762.967,26.718L762.967,28.89C763.104,28.704 763.282,28.536 763.49,28.396C763.699,28.253 763.963,28.181 764.274,28.181C764.751,28.181 765.122,28.327 765.389,28.62C765.655,28.911 765.787,29.313 765.787,29.824L765.787,32.752L764.225,32.752L764.225,30.329C764.225,30.082 764.167,29.894 764.055,29.766C763.94,29.639 763.793,29.576 763.611,29.576C763.425,29.576 763.268,29.639 763.147,29.766C763.023,29.894 762.967,30.082 762.967,30.329L762.967,32.752L761.404,32.752L761.404,26.718Z" style="fill:white;fill-rule:nonzero;"/>
            </g>
            <g transform="matrix(4.16667,0,0,4.16667,0,4712.85)">
                <path d="M766.533,28.281L768.096,28.281L768.096,32.752L766.533,32.752L766.533,28.281ZM766.5,26.719L768.129,26.719L768.129,27.875L766.5,27.875L766.5,26.719Z" style="fill:white;fill-rule:nonzero;"/>
            </g>
            <g transform="matrix(4.16667,0,0,4.16667,0,4718.94)">
                <path d="M768.864,26.818L770.428,26.818L770.428,27.445C770.498,27.351 770.576,27.259 770.661,27.172C770.748,27.083 770.845,27.007 770.952,26.941C771.059,26.875 771.178,26.823 771.31,26.78C771.437,26.738 771.582,26.719 771.737,26.719C772.215,26.719 772.586,26.862 772.852,27.155C773.119,27.449 773.25,27.851 773.25,28.362L773.25,31.289L771.687,31.289L771.687,28.867C771.687,28.62 771.631,28.432 771.517,28.304C771.406,28.177 771.258,28.114 771.073,28.114C770.884,28.114 770.73,28.177 770.609,28.304C770.488,28.432 770.428,28.62 770.428,28.867L770.428,31.289L768.864,31.289L768.864,26.818Z" style="fill:white;fill-rule:nonzero;"/>
            </g>
            <g transform="matrix(4.16667,0,0,4.16667,0,4712.85)">
                <path d="M773.963,26.718L775.525,26.718L775.525,29.776L776.729,28.28L778.489,28.28L776.948,30.072L778.528,32.752L776.818,32.752L775.925,31.23L775.525,31.7L775.525,32.752L773.963,32.752L773.963,26.718Z" style="fill:white;fill-rule:nonzero;"/>
            </g>
            <g transform="matrix(4.16667,0,0,4.16667,0,4718.94)">
                <path d="M778.806,26.818L780.371,26.818L780.371,27.428C780.512,27.242 780.687,27.074 780.9,26.934C781.115,26.788 781.376,26.719 781.687,26.719C781.982,26.719 782.236,26.78 782.456,26.906C782.673,27.034 782.843,27.214 782.963,27.445C783.154,27.22 783.366,27.041 783.602,26.912C783.834,26.782 784.117,26.719 784.444,26.719C784.919,26.719 785.291,26.86 785.558,27.142C785.826,27.427 785.958,27.83 785.958,28.355L785.958,31.289L784.395,31.289L784.395,28.859C784.395,28.61 784.341,28.424 784.233,28.301C784.124,28.177 783.98,28.114 783.796,28.114C783.61,28.114 783.458,28.177 783.339,28.301C783.22,28.424 783.16,28.61 783.16,28.859L783.16,31.289L781.598,31.289L781.598,28.859C781.598,28.61 781.542,28.424 781.435,28.301C781.326,28.177 781.179,28.114 780.995,28.114C780.81,28.114 780.661,28.177 780.544,28.301C780.428,28.424 780.371,28.61 780.371,28.859L780.371,31.289L778.806,31.289L778.806,26.818Z" style="fill:white;fill-rule:nonzero;"/>
            </g>
            <g transform="matrix(4.16667,0,0,4.16667,0,4712.85)">
                <path d="M786.696,28.281L788.257,28.281L788.257,32.752L786.696,32.752L786.696,28.281ZM786.662,26.719L788.289,26.719L788.289,27.875L786.662,27.875L786.662,26.719Z" style="fill:white;fill-rule:nonzero;"/>
            </g>
            <g transform="matrix(4.16667,0,0,4.16667,0,4718.94)">
                <path d="M789.028,26.818L790.59,26.818L790.59,27.445C790.66,27.351 790.741,27.259 790.825,27.172C790.912,27.083 791.006,27.007 791.116,26.941C791.223,26.875 791.342,26.823 791.472,26.78C791.6,26.738 791.744,26.719 791.899,26.719C792.377,26.719 792.747,26.862 793.015,27.155C793.279,27.449 793.413,27.851 793.413,28.362L793.413,31.289L791.85,31.289L791.85,28.867C791.85,28.62 791.794,28.432 791.681,28.304C791.566,28.177 791.418,28.114 791.235,28.114C791.047,28.114 790.891,28.177 790.773,28.304C790.649,28.432 790.59,28.62 790.59,28.867L790.59,31.289L789.028,31.289L789.028,26.818Z" style="fill:white;fill-rule:nonzero;"/>
            </g>
            <g transform="matrix(4.16667,0,0,4.16667,0,4715.01)">
                <path d="M795.891,32.322C795.42,32.322 795.053,32.207 794.79,31.986C794.528,31.758 794.396,31.377 794.396,30.843L794.396,29.026L793.872,29.026L793.872,27.761L794.396,27.761L794.396,26.629L795.958,26.629L795.958,27.761L796.99,27.761L796.99,29.026L795.958,29.026L795.958,30.539C795.958,30.698 795.993,30.812 796.065,30.877C796.136,30.949 796.241,30.983 796.383,30.983C796.487,30.983 796.586,30.97 796.687,30.942C796.785,30.916 796.88,30.877 796.973,30.835L796.973,32.066C796.83,32.141 796.671,32.205 796.491,32.252C796.312,32.3 796.109,32.322 795.891,32.322Z" style="fill:white;fill-rule:nonzero;"/>
            </g>
            <g transform="matrix(4.16667,0,0,4.16667,0,4713.89)">
                <path d="M799.829,26.718L801.312,26.718L803.675,29.776L803.675,26.718L805.237,26.718L805.237,32.503L803.844,32.503L801.392,29.329L801.392,32.503L799.829,32.503L799.829,26.718Z" style="fill:white;fill-rule:nonzero;"/>
            </g>
            <g transform="matrix(4.16667,0,0,4.16667,0,4712.85)">
                <path d="M806.105,28.281L807.668,28.281L807.668,32.752L806.105,32.752L806.105,28.281ZM806.072,26.719L807.699,26.719L807.699,27.875L806.072,27.875L806.072,26.719Z" style="fill:white;fill-rule:nonzero;"/>
            </g>
            <g transform="matrix(4.16667,0,0,4.16667,0,4724.51)">
                <path d="M810.704,28.348C810.964,28.348 811.179,28.266 811.35,28.1C811.517,27.936 811.603,27.73 811.603,27.479L811.603,27.465C811.603,27.216 811.517,27.01 811.35,26.848C811.179,26.687 810.964,26.604 810.704,26.604C810.436,26.604 810.219,26.688 810.048,26.853C809.88,27.018 809.794,27.226 809.794,27.472L809.794,27.49C809.794,27.737 809.88,27.941 810.048,28.106C810.219,28.267 810.436,28.348 810.704,28.348ZM810.612,31.289C810.182,31.289 809.784,31.245 809.421,31.158C809.06,31.07 808.719,30.942 808.397,30.778L808.893,29.737C809.136,29.87 809.378,29.97 809.624,30.046C809.868,30.122 810.14,30.157 810.441,30.157C810.833,30.157 811.127,30.065 811.316,29.875C811.509,29.688 811.603,29.416 811.603,29.058L811.603,28.886C811.446,29.067 811.258,29.225 811.045,29.357C810.833,29.49 810.564,29.556 810.236,29.556C809.963,29.556 809.708,29.507 809.472,29.409C809.236,29.314 809.027,29.176 808.849,28.997C808.674,28.818 808.532,28.597 808.429,28.342C808.324,28.088 808.272,27.8 808.272,27.479L808.272,27.465C808.272,27.143 808.324,26.856 808.429,26.596C808.532,26.338 808.67,26.119 808.846,25.94C809.019,25.76 809.223,25.622 809.455,25.525C809.688,25.428 809.932,25.382 810.187,25.382C810.52,25.382 810.792,25.443 811.005,25.562C811.217,25.683 811.411,25.833 811.578,26.009L811.578,25.481L813.134,25.481L813.134,28.876C813.134,29.291 813.086,29.64 812.993,29.931C812.901,30.22 812.757,30.464 812.561,30.663C812.357,30.865 812.1,31.022 811.784,31.128C811.466,31.237 811.076,31.289 810.612,31.289Z" style="fill:white;fill-rule:nonzero;"/>
            </g>
            <g transform="matrix(4.16667,0,0,4.16667,0,4719.39)">
                <path d="M816.71,28.579C816.681,28.33 816.6,28.133 816.463,27.988C816.327,27.842 816.153,27.768 815.938,27.768C815.731,27.768 815.564,27.842 815.434,27.988C815.301,28.133 815.214,28.33 815.17,28.579L816.71,28.579ZM816.069,31.289C815.722,31.289 815.402,31.231 815.113,31.119C814.824,31.008 814.574,30.85 814.365,30.651C814.155,30.446 813.99,30.204 813.874,29.916C813.756,29.63 813.699,29.313 813.699,28.967L813.699,28.949C813.699,28.624 813.754,28.322 813.86,28.037C813.97,27.754 814.125,27.505 814.323,27.294C814.523,27.081 814.759,26.913 815.032,26.792C815.304,26.673 815.605,26.612 815.932,26.612C816.314,26.612 816.645,26.676 816.925,26.809C817.207,26.943 817.439,27.121 817.622,27.344C817.804,27.565 817.94,27.824 818.03,28.12C818.119,28.414 818.167,28.725 818.167,29.056L818.167,29.214C818.167,29.27 818.162,29.325 818.159,29.382L815.195,29.382C815.255,29.627 815.368,29.811 815.535,29.933C815.7,30.055 815.907,30.116 816.153,30.116C816.338,30.116 816.509,30.08 816.664,30.007C816.819,29.937 816.977,29.82 817.135,29.661L817.993,30.381C817.782,30.655 817.518,30.876 817.204,31.04C816.891,31.206 816.512,31.289 816.069,31.289Z" style="fill:white;fill-rule:nonzero;"/>
            </g>
            <g transform="matrix(4.16667,0,0,4.16667,0,4718.97)">
                <path d="M818.739,26.812L820.301,26.812L820.301,27.71C820.428,27.409 820.6,27.166 820.816,26.985C821.036,26.802 821.328,26.719 821.701,26.736L821.701,28.39L821.571,28.39C821.16,28.39 820.847,28.511 820.628,28.753C820.411,28.993 820.301,29.376 820.301,29.894L820.301,31.283L818.739,31.283L818.739,26.812Z" style="fill:white;fill-rule:nonzero;"/>
            </g>
            <g transform="matrix(4.16667,0,0,4.16667,0,4712.85)">
                <path d="M822.182,28.281L823.746,28.281L823.746,32.752L822.182,32.752L822.182,28.281ZM822.147,26.719L823.778,26.719L823.778,27.875L822.147,27.875L822.147,26.719Z" style="fill:white;fill-rule:nonzero;"/>
            </g>
            <g transform="matrix(4.16667,0,0,4.16667,0,4719.5)">
                <path d="M826.341,30.271C826.569,30.271 826.756,30.202 826.894,30.071C827.039,29.94 827.109,29.759 827.109,29.534L827.109,29.328C827.033,29.293 826.942,29.266 826.836,29.245C826.728,29.223 826.62,29.212 826.503,29.212C826.273,29.212 826.098,29.263 825.976,29.364C825.852,29.468 825.792,29.6 825.792,29.765L825.792,29.782C825.792,29.938 825.843,30.055 825.948,30.14C826.052,30.229 826.182,30.271 826.341,30.271ZM825.782,31.254C825.571,31.254 825.374,31.223 825.194,31.161C825.015,31.1 824.857,31.012 824.724,30.896C824.59,30.782 824.487,30.641 824.409,30.467C824.333,30.298 824.295,30.101 824.295,29.873L824.295,29.856C824.295,29.624 824.336,29.421 824.422,29.245C824.507,29.068 824.622,28.923 824.773,28.806C824.921,28.692 825.104,28.603 825.317,28.544C825.53,28.483 825.768,28.452 826.03,28.452C826.237,28.452 826.433,28.469 826.623,28.504C826.812,28.542 826.967,28.581 827.092,28.624L827.092,28.551C827.092,28.319 827.02,28.14 826.876,28.012C826.731,27.886 826.511,27.821 826.21,27.821C825.975,27.821 825.762,27.844 825.571,27.89C825.38,27.935 825.186,27.993 824.99,28.072L824.669,26.962C824.921,26.86 825.186,26.775 825.469,26.711C825.749,26.647 826.082,26.619 826.463,26.619C826.859,26.619 827.198,26.662 827.473,26.757C827.748,26.849 827.974,26.984 828.148,27.161C828.316,27.328 828.439,27.526 828.512,27.761C828.588,27.994 828.622,28.269 828.622,28.584L828.622,31.155L827.085,31.155L827.085,30.692C826.932,30.86 826.752,30.999 826.541,31.099C826.331,31.202 826.077,31.254 825.782,31.254Z" style="fill:white;fill-rule:nonzero;"/>
            </g>
            <g transform="matrix(4.16667,0,0,4.16667,0,4543.86)">
                <path d="M787.961,53.439C786.104,53.439 784.597,51.92 784.597,50.044C784.597,48.168 786.104,46.648 787.961,46.648C789.818,46.648 791.325,48.168 791.325,50.044C791.325,51.92 789.818,53.439 787.961,53.439ZM794.286,50.735L794.286,49.46L792.819,49.291C792.772,48.95 792.69,48.621 792.575,48.306L793.778,47.441L793.168,46.326L791.791,46.898C791.588,46.646 791.363,46.416 791.117,46.206L791.715,44.791L790.618,44.162L789.728,45.387C789.441,45.279 789.138,45.194 788.829,45.138L788.657,43.622L787.396,43.622L787.223,45.128C786.892,45.18 786.573,45.267 786.269,45.381L785.405,44.163L784.302,44.78L784.879,46.188C784.622,46.403 784.388,46.645 784.179,46.906L782.784,46.326L782.175,47.441L783.394,48.321C783.283,48.63 783.203,48.953 783.156,49.288L781.664,49.46L781.664,50.735L783.186,50.91C783.239,51.198 783.319,51.474 783.417,51.741L782.295,52.79L783.041,53.818L784.217,53.141C784.436,53.408 784.681,53.647 784.949,53.861L784.375,55.274L785.477,55.889L786.354,54.648C786.632,54.747 786.922,54.821 787.222,54.869L787.396,56.406L788.657,56.406L788.831,54.864L788.782,54.864C789.065,54.819 789.34,54.747 789.602,54.654L790.473,55.889L791.577,55.274L791.008,53.876C791.285,53.657 791.539,53.408 791.764,53.134L792.955,53.818L793.699,52.79L792.573,51.739L792.544,51.778C792.65,51.501 792.735,51.207 792.789,50.909L794.286,50.735Z" style="fill:rgb(248,173,50);fill-rule:nonzero;"/>
            </g>
            <g transform="matrix(4.16667,0,0,4.16667,0,4544.07)">
                <path d="M787.988,51.69C787.059,51.69 786.307,50.929 786.307,49.992C786.307,49.055 787.059,48.294 787.988,48.294C788.916,48.294 789.671,49.055 789.671,49.992C789.671,50.929 788.916,51.69 787.988,51.69ZM787.984,47.848C786.813,47.848 785.863,48.804 785.863,49.986C785.863,51.169 786.813,52.128 787.984,52.128C789.156,52.128 790.104,51.169 790.104,49.986C790.104,48.804 789.156,47.848 787.984,47.848Z" style="fill:rgb(248,173,50);fill-rule:nonzero;"/>
            </g>
            <g transform="matrix(4.16667,0,0,4.16667,0,4541.45)">
                <path d="M792.299,60.196C784.989,60.196 779.063,55.698 779.063,50.147C779.063,44.6 784.989,40.101 792.299,40.101C799.61,40.101 805.535,44.6 805.535,50.147C805.535,55.698 799.61,60.196 792.299,60.196ZM779.83,59.538C780.087,58.727 780.342,57.913 780.598,57.101C781.062,57.6 781.577,58.064 782.131,58.499C781.367,58.844 780.598,59.191 779.83,59.538ZM792.189,38.849C784.235,38.849 777.788,43.977 777.788,50.304C777.788,52.371 778.48,54.308 779.685,55.982C779.124,57.918 778.717,59.318 778.538,59.785C778.504,59.875 778.366,60.221 778.436,60.639C778.461,60.773 778.483,60.9 778.557,60.987C778.85,61.311 779.832,60.868 780.294,60.659C780.995,60.345 781.994,59.907 783.341,59.336C785.783,60.85 788.851,61.757 792.189,61.757C800.145,61.757 806.595,56.63 806.595,50.304C806.595,43.977 800.145,38.849 792.189,38.849Z" style="fill:rgb(248,173,50);fill-rule:nonzero;"/>
            </g>
            <g transform="matrix(4.16667,0,0,4.16667,0,4544.72)">
                <path d="M788.058,49.755C788,49.742 787.944,49.725 787.888,49.709L787.887,49.709C787.723,49.658 787.681,49.601 787.681,49.508L787.681,49.506C787.681,49.426 787.735,49.363 787.834,49.339C787.834,49.339 787.967,49.326 787.996,49.33C788.013,49.33 788.035,49.334 788.058,49.342L788.059,49.342C788.158,49.363 788.256,49.412 788.348,49.48L788.469,49.277C788.348,49.189 788.22,49.134 788.065,49.111L788.065,48.984L787.879,48.984L787.879,49.109C787.613,49.134 787.428,49.29 787.428,49.521L787.428,49.527C787.428,49.772 787.575,49.887 787.888,49.971C787.944,49.983 788,49.997 788.058,50.013C788.221,50.062 788.268,50.119 788.268,50.215L788.268,50.22C788.268,50.323 788.196,50.39 788.058,50.404C788.048,50.409 788.025,50.409 788,50.407C787.942,50.403 787.859,50.389 787.859,50.389C787.734,50.361 787.624,50.302 787.509,50.206L787.372,50.404C787.517,50.521 787.692,50.599 787.879,50.619L787.879,50.838L788.065,50.838L788.065,50.624C788.338,50.599 788.522,50.441 788.522,50.204L788.522,50.2C788.522,49.968 788.382,49.838 788.058,49.755Z" style="fill:rgb(248,173,50);fill-rule:nonzero;"/>
            </g>
            <g transform="matrix(4.16667,0,0,4.16667,0,4515.84)">
                <path d="M797.342,55.483C796.199,55.286 795.429,54.189 795.624,53.032C795.82,51.874 796.905,51.098 798.053,51.295C799.196,51.493 799.966,52.59 799.77,53.746C799.575,54.902 798.487,55.679 797.342,55.483ZM801.523,54.485L801.657,53.701L800.772,53.44C800.777,53.224 800.758,53.014 800.722,52.808L801.553,52.401L801.292,51.652L800.385,51.857C800.286,51.681 800.17,51.515 800.043,51.359L800.556,50.549L799.948,50.045L799.271,50.707C799.106,50.609 798.929,50.527 798.743,50.459L798.795,49.505L798.017,49.371L797.755,50.281C797.546,50.278 797.339,50.298 797.139,50.336L796.734,49.493L795.989,49.756L796.199,50.684C796.019,50.789 795.849,50.914 795.694,51.054L794.895,50.548L794.401,51.171L795.063,51.842C794.96,52.022 794.879,52.212 794.814,52.411L793.877,52.362L793.744,53.144L794.664,53.417C794.666,53.599 794.688,53.777 794.721,53.951L793.919,54.479L794.27,55.192L795.069,54.901C795.174,55.087 795.301,55.261 795.441,55.421L794.942,56.23L795.557,56.729L796.229,56.054C796.388,56.145 796.558,56.221 796.738,56.283L796.687,57.249L797.464,57.382L797.733,56.451L797.702,56.447C797.88,56.448 798.056,56.435 798.228,56.404L798.637,57.258L799.382,56.996L799.176,56.074C799.369,55.968 799.553,55.844 799.72,55.698L800.381,56.246L800.949,55.691L800.362,54.923L800.342,54.943C800.436,54.784 800.518,54.613 800.583,54.435L801.523,54.485Z" style="fill:rgb(248,173,50);fill-rule:nonzero;"/>
            </g>
            <g transform="matrix(4.16667,0,0,4.16667,0,4515.82)">
                <path d="M797.634,54.441C797.056,54.405 796.617,53.9 796.654,53.315C796.691,52.73 797.193,52.286 797.772,52.324C798.349,52.362 798.788,52.867 798.753,53.451C798.714,54.035 798.213,54.48 797.634,54.441ZM797.786,52.045C797.056,51.995 796.425,52.556 796.379,53.292C796.331,54.029 796.885,54.667 797.615,54.715C798.348,54.761 798.976,54.204 799.023,53.467C799.069,52.73 798.516,52.091 797.786,52.045Z" style="fill:rgb(248,173,50);fill-rule:nonzero;"/>
            </g>
            <g transform="matrix(4.16667,0,0,4.16667,0,4515.85)">
                <path d="M797.769,53.276C797.733,53.268 797.699,53.259 797.663,53.251C797.56,53.217 797.534,53.182 797.534,53.125L797.534,53.123C797.534,53.073 797.567,53.033 797.629,53.016C797.629,53.016 797.711,53.009 797.73,53.012C797.741,53.013 797.755,53.015 797.769,53.019C797.769,53.019 797.77,53.019 797.772,53.02C797.833,53.033 797.893,53.063 797.954,53.107L798.025,52.979C797.954,52.922 797.871,52.89 797.775,52.876L797.775,52.796L797.657,52.796L797.657,52.873C797.49,52.89 797.376,52.988 797.376,53.132L797.376,53.135C797.376,53.287 797.466,53.363 797.663,53.413C797.699,53.42 797.733,53.43 797.769,53.438C797.872,53.47 797.901,53.507 797.901,53.566L797.901,53.568C797.901,53.634 797.855,53.676 797.769,53.684C797.765,53.688 797.752,53.688 797.733,53.686C797.697,53.682 797.647,53.674 797.647,53.674C797.566,53.658 797.499,53.618 797.426,53.56L797.341,53.684C797.431,53.759 797.542,53.805 797.657,53.818L797.657,53.955L797.775,53.955L797.775,53.821C797.944,53.805 798.06,53.705 798.06,53.559L798.06,53.554C798.06,53.412 797.972,53.329 797.769,53.276Z" style="fill:rgb(248,173,50);fill-rule:nonzero;"/>
            </g>
            <g transform="matrix(4.16667,0,0,4.16667,0,4811.32)">
                <path d="M803.903,19.174C803.903,19.319 803.918,19.422 803.947,19.484C803.976,19.546 804.028,19.593 804.105,19.626C804.157,19.649 804.236,19.665 804.341,19.675L804.36,19.675C804.456,19.687 804.505,19.712 804.505,19.748C804.505,19.766 804.495,19.781 804.475,19.792C804.455,19.802 804.428,19.808 804.393,19.808C804.386,19.808 804.364,19.807 804.328,19.805C804.095,19.789 803.857,19.781 803.612,19.781C803.369,19.781 803.129,19.789 802.893,19.805C802.857,19.807 802.835,19.808 802.828,19.808C802.793,19.808 802.767,19.802 802.749,19.792C802.731,19.781 802.722,19.766 802.722,19.748C802.722,19.712 802.77,19.687 802.866,19.675L802.885,19.675C802.99,19.665 803.069,19.649 803.122,19.626C803.198,19.593 803.251,19.546 803.28,19.484C803.309,19.422 803.323,19.319 803.323,19.174L803.323,16.362C803.323,16.297 803.304,16.252 803.266,16.227C803.228,16.203 803.141,16.19 803.005,16.19L802.782,16.19C802.475,16.19 802.26,16.207 802.138,16.241C802.015,16.274 801.925,16.332 801.867,16.414C801.822,16.481 801.79,16.576 801.772,16.698C801.754,16.821 801.732,16.882 801.706,16.882C801.688,16.882 801.676,16.875 801.668,16.863C801.661,16.85 801.657,16.825 801.657,16.787L801.657,16.158C801.657,16.109 801.669,16.075 801.692,16.057C801.714,16.039 801.756,16.03 801.818,16.03C801.833,16.03 801.88,16.031 801.96,16.033C802.493,16.056 803.044,16.068 803.612,16.068C804.182,16.068 804.733,16.056 805.267,16.033C805.347,16.031 805.394,16.03 805.408,16.03C805.47,16.03 805.511,16.038 805.532,16.056C805.553,16.073 805.563,16.107 805.563,16.158L805.563,16.787C805.563,16.83 805.56,16.857 805.554,16.867C805.548,16.877 805.536,16.882 805.52,16.882C805.494,16.882 805.471,16.82 805.45,16.697C805.43,16.573 805.396,16.479 805.351,16.414C805.297,16.33 805.209,16.272 805.088,16.239C804.968,16.207 804.711,16.19 804.317,16.19L804.221,16.19C804.08,16.19 803.992,16.202 803.956,16.226C803.921,16.249 803.903,16.295 803.903,16.362L803.903,19.174Z" style="fill:white;fill-rule:nonzero;"/>
            </g>
            <g transform="matrix(4.16667,0,0,4.16667,0,4811.38)">
                <path d="M806.483,19.062L806.483,16.387C806.46,16.331 806.426,16.287 806.381,16.256C806.337,16.225 806.27,16.2 806.181,16.18C806.157,16.174 806.135,16.17 806.114,16.168C806.093,16.165 806.074,16.164 806.056,16.164L806.05,16.164C805.963,16.151 805.92,16.126 805.92,16.09C805.92,16.072 805.931,16.057 805.952,16.047C805.974,16.036 806.002,16.03 806.037,16.03C806.071,16.03 806.144,16.034 806.254,16.041C806.365,16.048 806.459,16.052 806.535,16.052C806.627,16.052 806.701,16.05 806.755,16.047C806.81,16.043 806.85,16.038 806.878,16.03L806.929,16.03C806.977,16.03 807.012,16.039 807.037,16.056C807.061,16.073 807.087,16.115 807.115,16.18L808.274,18.913L809.466,16.136C809.481,16.098 809.501,16.071 809.526,16.055C809.552,16.038 809.583,16.03 809.621,16.03C809.634,16.03 809.651,16.032 809.67,16.037C809.69,16.042 809.704,16.045 809.711,16.047C809.724,16.047 809.748,16.048 809.785,16.049C809.821,16.051 809.85,16.052 809.872,16.052C809.957,16.052 810.065,16.049 810.196,16.044C810.326,16.038 810.416,16.036 810.465,16.036C810.516,16.036 810.551,16.04 810.57,16.049C810.589,16.058 810.599,16.074 810.599,16.096C810.599,16.123 810.565,16.144 810.498,16.158C810.489,16.16 810.481,16.162 810.473,16.164C810.41,16.167 810.356,16.176 810.311,16.189C810.267,16.203 810.227,16.223 810.19,16.248C810.134,16.288 810.091,16.349 810.062,16.43C810.033,16.512 810.019,16.614 810.019,16.738L810.019,19.158C810.019,19.301 810.032,19.404 810.057,19.465C810.082,19.527 810.128,19.575 810.193,19.61C810.218,19.622 810.248,19.633 810.28,19.641C810.313,19.649 810.35,19.655 810.392,19.659C810.399,19.66 810.408,19.662 810.419,19.664C810.493,19.678 810.531,19.701 810.531,19.732C810.531,19.75 810.522,19.765 810.506,19.776C810.49,19.786 810.466,19.792 810.435,19.792C810.428,19.792 810.409,19.791 810.378,19.789C810.169,19.773 809.958,19.765 809.744,19.765C809.515,19.765 809.29,19.773 809.069,19.789C809.033,19.791 809.011,19.792 809.004,19.792C808.971,19.792 808.946,19.786 808.929,19.776C808.911,19.765 808.903,19.75 808.903,19.732C808.905,19.696 808.95,19.672 809.039,19.661C809.046,19.659 809.051,19.659 809.053,19.659C809.1,19.655 809.14,19.649 809.174,19.641C809.207,19.633 809.239,19.621 809.268,19.607C809.335,19.574 809.382,19.527 809.409,19.467C809.436,19.406 809.45,19.303 809.45,19.158L809.45,16.575L808.127,19.669C808.116,19.697 808.103,19.719 808.088,19.737C808.072,19.756 808.06,19.765 808.051,19.765C808.04,19.765 808.028,19.758 808.015,19.746C808.003,19.733 807.992,19.717 807.983,19.697L806.657,16.547L806.657,19.068C806.657,19.244 806.674,19.368 806.708,19.439C806.741,19.511 806.8,19.567 806.883,19.607C806.914,19.625 806.945,19.638 806.977,19.646C807.009,19.654 807.041,19.659 807.074,19.659C807.077,19.659 807.085,19.66 807.095,19.664C807.155,19.678 807.185,19.701 807.185,19.732C807.185,19.75 807.175,19.765 807.154,19.776C807.133,19.786 807.103,19.792 807.063,19.792C807.056,19.792 807.038,19.791 807.01,19.789C806.982,19.787 806.959,19.786 806.94,19.786C806.933,19.786 806.891,19.783 806.814,19.776C806.737,19.768 806.669,19.765 806.611,19.765C806.578,19.765 806.534,19.767 806.479,19.771C806.424,19.776 806.391,19.779 806.38,19.781C806.318,19.786 806.273,19.79 806.244,19.791C806.215,19.791 806.186,19.792 806.159,19.792C806.087,19.792 806.034,19.787 806.003,19.777C805.971,19.767 805.955,19.75 805.955,19.727C805.955,19.708 805.964,19.694 805.981,19.684C805.998,19.674 806.034,19.666 806.088,19.659C806.09,19.659 806.096,19.658 806.105,19.656C806.19,19.639 806.254,19.619 806.295,19.596C806.364,19.556 806.413,19.5 806.441,19.428C806.469,19.357 806.483,19.235 806.483,19.062Z" style="fill:white;fill-rule:nonzero;"/>
            </g>
            <g transform="matrix(4.16667,0,0,4.16667,0,4811.41)">
                <path d="M816.2,19.367C816.111,19.37 816.03,19.379 815.959,19.393C815.887,19.406 815.824,19.426 815.77,19.451C815.732,19.469 815.673,19.5 815.593,19.544C815.194,19.758 814.827,19.865 814.493,19.865C814.225,19.865 813.976,19.819 813.749,19.727C813.521,19.636 813.32,19.501 813.146,19.323C812.975,19.151 812.849,18.958 812.766,18.745C812.683,18.532 812.642,18.292 812.642,18.025C812.642,17.412 812.825,16.913 813.191,16.528C813.556,16.143 814.031,15.951 814.616,15.951C814.931,15.951 815.251,16.023 815.574,16.168C815.663,16.208 815.719,16.228 815.742,16.228C815.772,16.228 815.8,16.199 815.827,16.14C815.854,16.081 815.878,16.051 815.898,16.051C815.919,16.051 815.934,16.059 815.943,16.073C815.951,16.088 815.955,16.116 815.955,16.158L815.955,16.217L815.922,17.037C815.92,17.06 815.915,17.078 815.907,17.088C815.899,17.099 815.887,17.105 815.87,17.105C815.841,17.105 815.818,17.065 815.8,16.985C815.785,16.925 815.772,16.877 815.759,16.841C815.664,16.576 815.531,16.38 815.359,16.253C815.186,16.126 814.967,16.062 814.7,16.062C814.252,16.062 813.911,16.222 813.678,16.543C813.445,16.863 813.328,17.331 813.328,17.946C813.328,18.503 813.442,18.938 813.668,19.251C813.895,19.564 814.209,19.721 814.61,19.721C814.944,19.721 815.189,19.646 815.346,19.497C815.503,19.349 815.582,19.116 815.582,18.801C815.582,18.688 815.565,18.595 815.53,18.522C815.496,18.448 815.448,18.4 815.386,18.376C815.355,18.367 815.324,18.359 815.292,18.351C815.26,18.344 815.231,18.34 815.204,18.338C815.198,18.336 815.191,18.334 815.182,18.332C815.109,18.318 815.073,18.295 815.073,18.264C815.073,18.246 815.085,18.231 815.108,18.219C815.132,18.208 815.163,18.202 815.201,18.202C815.214,18.202 815.246,18.204 815.299,18.21C815.493,18.228 815.674,18.237 815.843,18.237C816.028,18.237 816.218,18.228 816.412,18.21C816.456,18.204 816.481,18.202 816.488,18.202C816.519,18.202 816.544,18.208 816.564,18.219C816.584,18.231 816.594,18.244 816.594,18.259C816.594,18.286 816.565,18.31 816.507,18.33C816.498,18.333 816.492,18.336 816.488,18.338C816.457,18.341 816.428,18.348 816.398,18.358C816.369,18.368 816.34,18.381 816.311,18.398C816.259,18.43 816.222,18.474 816.202,18.53C816.182,18.585 816.172,18.695 816.172,18.86L816.172,18.923C816.172,19.003 816.175,19.08 816.179,19.156C816.184,19.231 816.191,19.301 816.2,19.367Z" style="fill:white;fill-rule:nonzero;"/>
            </g>
            <g transform="matrix(4.16667,0,0,4.16667,0,4816.42)">
                <path d="M817.756,16.626C817.832,16.459 817.941,16.328 818.081,16.234C818.222,16.14 818.379,16.092 818.551,16.092C818.678,16.092 818.78,16.12 818.858,16.174C818.937,16.228 818.976,16.299 818.975,16.386C818.976,16.455 818.958,16.51 818.924,16.55C818.889,16.59 818.843,16.61 818.785,16.609C818.742,16.61 818.705,16.6 818.676,16.58C818.647,16.56 818.623,16.529 818.603,16.487C818.597,16.476 818.59,16.461 818.581,16.441C818.537,16.337 818.461,16.286 818.352,16.286C818.187,16.286 818.052,16.355 817.947,16.494C817.841,16.633 817.789,16.814 817.789,17.04L817.789,18.093C817.789,18.207 817.798,18.283 817.816,18.32C817.834,18.357 817.87,18.388 817.922,18.411C817.944,18.422 817.968,18.431 817.994,18.439C818.021,18.446 818.048,18.451 818.077,18.455C818.123,18.462 818.153,18.472 818.167,18.484C818.182,18.495 818.189,18.512 818.189,18.534C818.189,18.548 818.182,18.56 818.167,18.569C818.153,18.578 818.133,18.583 818.107,18.583C818.104,18.583 818.039,18.577 817.914,18.567C817.789,18.556 817.665,18.55 817.544,18.55C817.42,18.55 817.296,18.556 817.171,18.567C817.046,18.577 816.982,18.583 816.98,18.583C816.955,18.583 816.935,18.578 816.919,18.569C816.904,18.56 816.896,18.548 816.896,18.534C816.896,18.516 816.902,18.501 816.915,18.49C816.928,18.479 816.959,18.468 817.008,18.455C817.038,18.451 817.067,18.446 817.092,18.439C817.117,18.431 817.141,18.422 817.163,18.411C817.215,18.388 817.251,18.357 817.27,18.32C817.289,18.283 817.299,18.207 817.299,18.093L817.299,16.811C817.299,16.669 817.283,16.564 817.253,16.494C817.222,16.424 817.17,16.375 817.097,16.348C817.077,16.341 817.056,16.335 817.032,16.332C817.009,16.328 816.974,16.326 816.929,16.326C816.876,16.326 816.842,16.321 816.828,16.311C816.813,16.301 816.806,16.286 816.806,16.264C816.806,16.247 816.821,16.233 816.85,16.219C816.879,16.205 816.932,16.19 817.01,16.174C817.152,16.147 817.288,16.116 817.419,16.081C817.549,16.047 817.615,16.03 817.615,16.03C817.667,16.03 817.705,16.148 817.729,16.384C817.738,16.482 817.747,16.562 817.756,16.626Z" style="fill:white;fill-rule:nonzero;"/>
            </g>
            <g transform="matrix(4.16667,0,0,4.16667,0,4816.79)">
                <path d="M819.827,17.269C819.827,17.645 819.895,17.935 820.03,18.139C820.165,18.343 820.356,18.445 820.603,18.445C820.866,18.445 821.066,18.343 821.202,18.14C821.338,17.937 821.406,17.638 821.406,17.245C821.406,16.873 821.336,16.584 821.195,16.378C821.054,16.172 820.857,16.069 820.603,16.069C820.371,16.069 820.183,16.178 820.041,16.395C819.899,16.613 819.827,16.904 819.827,17.269ZM819.288,17.261C819.288,16.894 819.419,16.586 819.68,16.337C819.942,16.087 820.264,15.962 820.647,15.962C820.821,15.962 820.983,15.993 821.133,16.055C821.282,16.117 821.42,16.208 821.545,16.33C821.672,16.457 821.771,16.6 821.842,16.759C821.912,16.917 821.948,17.076 821.948,17.234C821.948,17.406 821.914,17.573 821.846,17.736C821.778,17.898 821.681,18.043 821.556,18.17C821.425,18.304 821.285,18.403 821.135,18.467C820.985,18.53 820.817,18.562 820.63,18.562C820.242,18.562 819.921,18.439 819.668,18.194C819.415,17.95 819.288,17.638 819.288,17.261Z" style="fill:white;fill-rule:nonzero;"/>
            </g>
            <g transform="matrix(4.16667,0,0,4.16667,0,4817.08)">
                <path d="M824.438,16.441C824.438,16.325 824.429,16.248 824.41,16.212C824.391,16.176 824.356,16.146 824.305,16.122C824.28,16.113 824.255,16.105 824.23,16.099C824.206,16.093 824.18,16.088 824.153,16.084C824.104,16.075 824.072,16.065 824.057,16.053C824.043,16.041 824.036,16.023 824.036,16C824.036,15.985 824.045,15.973 824.064,15.964C824.083,15.955 824.111,15.951 824.147,15.951C824.164,15.951 824.213,15.954 824.294,15.962C824.376,15.969 824.449,15.972 824.515,15.972C824.545,15.972 824.594,15.97 824.662,15.964C824.729,15.959 824.781,15.956 824.817,15.956C824.858,15.956 824.888,15.967 824.904,15.99C824.92,16.013 824.928,16.055 824.928,16.117L824.928,17.785C824.928,17.916 824.938,18.008 824.958,18.061C824.978,18.115 825.013,18.154 825.062,18.18C825.091,18.194 825.139,18.205 825.206,18.213L825.211,18.213C825.215,18.214 825.22,18.215 825.225,18.215C825.29,18.228 825.323,18.246 825.323,18.27C825.323,18.299 825.278,18.321 825.187,18.338C825.156,18.343 825.131,18.348 825.111,18.351C825.005,18.375 824.896,18.406 824.783,18.445C824.669,18.484 824.604,18.504 824.588,18.504C824.532,18.504 824.493,18.347 824.471,18.033C824.469,18 824.467,17.975 824.466,17.957C824.359,18.135 824.229,18.267 824.078,18.353C823.926,18.439 823.749,18.482 823.546,18.482C823.259,18.482 823.05,18.414 822.918,18.279C822.787,18.144 822.721,17.929 822.721,17.633L822.721,16.441C822.721,16.325 822.711,16.248 822.692,16.212C822.673,16.176 822.638,16.146 822.588,16.122C822.562,16.113 822.537,16.105 822.513,16.099C822.488,16.093 822.463,16.088 822.438,16.084C822.387,16.075 822.354,16.065 822.34,16.053C822.325,16.041 822.318,16.023 822.318,16C822.318,15.983 822.327,15.971 822.345,15.963C822.363,15.955 822.39,15.951 822.424,15.951C822.448,15.951 822.501,15.954 822.585,15.962C822.668,15.969 822.74,15.972 822.8,15.972C822.829,15.972 822.877,15.97 822.944,15.964C823.011,15.959 823.063,15.956 823.099,15.956C823.141,15.956 823.17,15.967 823.186,15.99C823.203,16.013 823.211,16.055 823.211,16.117L823.211,17.712C823.211,17.91 823.254,18.058 823.341,18.158C823.429,18.258 823.56,18.308 823.736,18.308C823.932,18.308 824.098,18.23 824.234,18.075C824.37,17.92 824.438,17.728 824.438,17.499L824.438,16.441Z" style="fill:white;fill-rule:nonzero;"/>
            </g>
            <g transform="matrix(4.16667,0,0,4.16667,0,4822.65)">
                <path d="M826.605,18.142C826.605,18.257 826.614,18.331 826.633,18.367C826.652,18.402 826.687,18.432 826.738,18.455C826.762,18.466 826.786,18.475 826.812,18.483C826.837,18.49 826.865,18.495 826.896,18.499C826.941,18.506 826.971,18.516 826.986,18.527C827,18.539 827.008,18.556 827.008,18.578C827.008,18.592 827,18.604 826.984,18.613C826.969,18.622 826.949,18.627 826.923,18.627C826.921,18.627 826.857,18.621 826.731,18.61C826.605,18.6 826.481,18.594 826.36,18.594C826.209,18.594 826.048,18.603 825.875,18.621C825.828,18.625 825.798,18.627 825.785,18.627C825.76,18.627 825.74,18.622 825.724,18.613C825.709,18.604 825.701,18.592 825.701,18.578C825.701,18.56 825.708,18.545 825.721,18.534C825.735,18.523 825.766,18.511 825.815,18.499C825.844,18.495 825.872,18.49 825.897,18.483C825.922,18.475 825.947,18.466 825.971,18.455C826.023,18.432 826.059,18.402 826.077,18.367C826.095,18.331 826.104,18.257 826.104,18.142L826.104,15.211C826.104,15.08 826.094,14.988 826.074,14.934C826.054,14.881 826.02,14.842 825.971,14.816C825.941,14.802 825.892,14.79 825.824,14.781L825.818,14.781C825.816,14.781 825.812,14.78 825.804,14.778C825.741,14.767 825.708,14.75 825.706,14.726C825.706,14.697 825.758,14.673 825.862,14.653C825.885,14.649 825.904,14.646 825.919,14.642C826.024,14.62 826.134,14.59 826.248,14.551C826.362,14.512 826.428,14.492 826.444,14.492C826.491,14.492 826.526,14.598 826.548,14.811C826.555,14.881 826.561,14.939 826.567,14.982C826.666,14.839 826.784,14.732 826.919,14.662C827.054,14.592 827.214,14.557 827.397,14.557C827.752,14.557 828.045,14.677 828.275,14.915C828.504,15.154 828.619,15.46 828.619,15.834C828.619,16.212 828.501,16.521 828.264,16.764C828.027,17.006 827.727,17.127 827.364,17.127C827.204,17.127 827.061,17.099 826.933,17.043C826.805,16.986 826.695,16.904 826.605,16.795L826.605,18.142ZM826.578,15.902C826.578,16.133 826.587,16.304 826.606,16.417C826.625,16.529 826.656,16.618 826.7,16.683C826.754,16.763 826.835,16.829 826.942,16.882C827.049,16.935 827.158,16.961 827.269,16.961C827.517,16.961 827.713,16.863 827.854,16.667C827.996,16.471 828.066,16.199 828.066,15.85C828.066,15.486 827.999,15.205 827.865,15.009C827.731,14.813 827.539,14.715 827.291,14.715C827.202,14.715 827.116,14.731 827.032,14.763C826.949,14.795 826.873,14.84 826.806,14.898C826.723,14.972 826.664,15.07 826.629,15.19C826.595,15.311 826.578,15.548 826.578,15.902Z" style="fill:white;fill-rule:nonzero;"/>
            </g>
            <g transform="matrix(4.16667,0,0,4.16667,0,4779.33)">
                <path d="M803.64,22.7L802.839,20.815L802.459,20.815L801.657,22.7L802.077,22.7L802.248,22.28L803.039,22.28L803.21,22.7L803.64,22.7ZM802.892,21.917L802.395,21.917L802.643,21.31L802.892,21.917Z" style="fill:white;fill-rule:nonzero;"/>
            </g>
            <g transform="matrix(4.16667,0,0,4.16667,0,4781.1)">
                <path d="M806.875,22.274L806.875,21.341C806.875,21.169 806.832,21.038 806.747,20.948C806.661,20.859 806.542,20.815 806.391,20.815C806.293,20.815 806.206,20.834 806.129,20.872C806.052,20.911 805.983,20.967 805.92,21.042C805.883,20.969 805.83,20.913 805.761,20.874C805.693,20.834 805.611,20.815 805.517,20.815C805.465,20.815 805.418,20.821 805.376,20.834C805.335,20.846 805.297,20.863 805.263,20.884C805.229,20.906 805.198,20.93 805.171,20.958C805.143,20.985 805.118,21.014 805.094,21.045L805.095,20.842L804.688,20.842L804.688,22.274L805.095,22.274L805.095,21.475C805.095,21.379 805.116,21.306 805.16,21.257C805.204,21.208 805.264,21.184 805.34,21.184C805.417,21.184 805.476,21.208 805.517,21.257C805.558,21.306 805.578,21.379 805.578,21.475L805.578,22.274L805.985,22.274L805.985,21.475C805.985,21.379 806.007,21.306 806.05,21.257C806.094,21.208 806.154,21.184 806.231,21.184C806.307,21.184 806.366,21.208 806.407,21.257C806.448,21.306 806.468,21.379 806.468,21.475L806.468,22.274L806.875,22.274Z" style="fill:white;fill-rule:nonzero;"/>
            </g>
            <g transform="matrix(4.16667,0,0,4.16667,0,4781.24)">
                <path d="M808.564,21.566L808.564,21.56C808.564,21.459 808.55,21.361 808.523,21.268C808.495,21.174 808.452,21.091 808.395,21.019C808.337,20.947 808.264,20.89 808.177,20.847C808.089,20.804 807.986,20.783 807.867,20.783C807.761,20.783 807.666,20.802 807.579,20.842C807.493,20.881 807.418,20.934 807.356,21.002C807.294,21.07 807.245,21.149 807.21,21.24C807.176,21.331 807.158,21.427 807.158,21.528L807.158,21.534C807.158,21.644 807.177,21.744 807.214,21.834C807.252,21.924 807.304,22.002 807.371,22.068C807.438,22.134 807.517,22.185 807.609,22.221C807.7,22.256 807.8,22.274 807.907,22.274C808.037,22.274 808.15,22.25 808.246,22.203C808.342,22.156 808.424,22.09 808.492,22.007L808.26,21.801C808.203,21.852 808.147,21.89 808.094,21.913C808.04,21.936 807.98,21.948 807.912,21.948C807.821,21.948 807.745,21.924 807.684,21.877C807.622,21.83 807.581,21.76 807.562,21.667L808.559,21.667C808.561,21.647 808.562,21.631 808.563,21.616C808.564,21.602 808.564,21.585 808.564,21.566ZM808.169,21.413L807.557,21.413C807.573,21.321 807.607,21.247 807.659,21.192C807.712,21.137 807.781,21.109 807.867,21.109C807.952,21.109 808.021,21.137 808.072,21.193C808.124,21.249 808.156,21.323 808.169,21.413Z" style="fill:white;fill-rule:nonzero;"/>
            </g>
            <g transform="matrix(4.16667,0,0,4.16667,0,4781.1)">
                <path d="M811.053,22.274L811.053,21.341C811.053,21.169 811.01,21.038 810.925,20.948C810.839,20.859 810.72,20.815 810.569,20.815C810.471,20.815 810.384,20.834 810.307,20.872C810.23,20.911 810.161,20.967 810.098,21.042C810.061,20.969 810.008,20.913 809.939,20.874C809.871,20.834 809.789,20.815 809.695,20.815C809.643,20.815 809.596,20.821 809.554,20.834C809.513,20.846 809.475,20.863 809.441,20.884C809.407,20.906 809.376,20.93 809.349,20.958C809.321,20.985 809.296,21.014 809.272,21.045L809.273,20.842L808.866,20.842L808.866,22.274L809.273,22.274L809.273,21.475C809.273,21.379 809.294,21.306 809.338,21.257C809.382,21.208 809.442,21.184 809.518,21.184C809.595,21.184 809.654,21.208 809.695,21.257C809.736,21.306 809.756,21.379 809.756,21.475L809.756,22.274L810.163,22.274L810.163,21.475C810.163,21.379 810.185,21.306 810.228,21.257C810.272,21.208 810.332,21.184 810.409,21.184C810.485,21.184 810.544,21.208 810.585,21.257C810.626,21.306 810.646,21.379 810.646,21.475L810.646,22.274L811.053,22.274Z" style="fill:white;fill-rule:nonzero;"/>
            </g>
            <g transform="matrix(4.16667,0,0,4.16667,0,4779.17)">
                <path d="M812.911,22.025L812.911,22.02C812.911,21.901 812.893,21.795 812.856,21.703C812.82,21.612 812.771,21.534 812.711,21.471C812.65,21.408 812.58,21.36 812.502,21.328C812.424,21.296 812.343,21.28 812.259,21.28C812.152,21.28 812.063,21.302 811.993,21.345C811.923,21.389 811.863,21.445 811.813,21.512L811.813,20.788L811.406,20.788L811.406,22.739L811.813,22.739L811.812,22.552C811.86,22.609 811.92,22.659 811.99,22.702C812.06,22.744 812.15,22.766 812.259,22.766C812.344,22.766 812.426,22.75 812.505,22.718C812.583,22.686 812.652,22.638 812.712,22.575C812.772,22.511 812.82,22.434 812.856,22.342C812.893,22.25 812.911,22.145 812.911,22.025ZM812.504,22.025C812.504,22.086 812.495,22.14 812.476,22.189C812.458,22.237 812.432,22.278 812.4,22.313C812.368,22.348 812.331,22.374 812.289,22.393C812.248,22.412 812.203,22.421 812.155,22.421C812.106,22.421 812.062,22.412 812.02,22.393C811.978,22.374 811.941,22.348 811.91,22.313C811.879,22.278 811.854,22.236 811.835,22.187C811.817,22.138 811.807,22.084 811.807,22.025L811.807,22.02C811.807,21.961 811.817,21.907 811.835,21.858C811.854,21.809 811.879,21.767 811.91,21.733C811.941,21.698 811.978,21.671 812.02,21.652C812.062,21.634 812.106,21.624 812.155,21.624C812.203,21.624 812.248,21.634 812.289,21.652C812.331,21.671 812.368,21.698 812.4,21.733C812.432,21.767 812.458,21.809 812.476,21.858C812.495,21.907 812.504,21.961 812.504,22.02L812.504,22.025Z" style="fill:white;fill-rule:nonzero;"/>
            </g>
            <g transform="matrix(4.16667,0,0,4.16667,0,4781.24)">
                <path d="M814.546,21.566L814.546,21.56C814.546,21.459 814.532,21.361 814.505,21.268C814.477,21.174 814.434,21.091 814.377,21.019C814.319,20.947 814.246,20.89 814.159,20.847C814.071,20.804 813.968,20.783 813.849,20.783C813.743,20.783 813.648,20.802 813.561,20.842C813.475,20.881 813.4,20.934 813.338,21.002C813.276,21.07 813.227,21.149 813.192,21.24C813.158,21.331 813.14,21.427 813.14,21.528L813.14,21.534C813.14,21.644 813.159,21.744 813.196,21.834C813.234,21.924 813.286,22.002 813.353,22.068C813.42,22.134 813.499,22.185 813.591,22.221C813.682,22.256 813.782,22.274 813.889,22.274C814.019,22.274 814.132,22.25 814.228,22.203C814.324,22.156 814.406,22.09 814.474,22.007L814.242,21.801C814.185,21.852 814.129,21.89 814.076,21.913C814.022,21.936 813.962,21.948 813.894,21.948C813.803,21.948 813.727,21.924 813.666,21.877C813.604,21.83 813.563,21.76 813.544,21.667L814.541,21.667C814.543,21.647 814.544,21.631 814.545,21.616C814.546,21.602 814.546,21.585 814.546,21.566ZM814.151,21.413L813.539,21.413C813.555,21.321 813.589,21.247 813.641,21.192C813.694,21.137 813.763,21.109 813.849,21.109C813.934,21.109 814.003,21.137 814.054,21.193C814.106,21.249 814.138,21.323 814.151,21.413Z" style="fill:white;fill-rule:nonzero;"/>
            </g>
            <g transform="matrix(4.16667,0,0,4.16667,0,4781.08)">
                <path d="M815.711,21.246L815.711,20.821C815.59,20.815 815.494,20.842 815.422,20.901C815.351,20.96 815.295,21.038 815.254,21.136L815.254,20.848L814.847,20.848L814.847,22.28L815.254,22.28L815.254,21.751C815.254,21.578 815.293,21.451 815.37,21.369C815.448,21.287 815.554,21.246 815.69,21.246L815.711,21.246Z" style="fill:white;fill-rule:nonzero;"/>
            </g>
            <g transform="matrix(4.16667,0,0,4.16667,0,4781.24)">
                <path d="M818.247,21.528L818.247,21.523C818.247,21.42 818.227,21.323 818.188,21.233C818.149,21.143 818.095,21.065 818.026,20.998C817.958,20.931 817.876,20.879 817.782,20.84C817.687,20.802 817.585,20.783 817.474,20.783C817.362,20.783 817.259,20.802 817.164,20.842C817.07,20.881 816.988,20.934 816.918,21.002C816.849,21.07 816.794,21.148 816.755,21.238C816.716,21.328 816.696,21.425 816.696,21.528L816.696,21.534C816.696,21.637 816.716,21.734 816.755,21.824C816.794,21.914 816.848,21.992 816.917,22.059C816.985,22.126 817.067,22.178 817.161,22.217C817.256,22.255 817.358,22.274 817.469,22.274C817.581,22.274 817.684,22.254 817.779,22.215C817.873,22.176 817.955,22.123 818.025,22.055C818.094,21.987 818.149,21.908 818.188,21.818C818.227,21.728 818.247,21.632 818.247,21.528ZM817.846,21.534C817.846,21.587 817.838,21.637 817.821,21.685C817.804,21.732 817.779,21.773 817.747,21.809C817.715,21.844 817.676,21.872 817.631,21.893C817.585,21.913 817.533,21.924 817.474,21.924C817.417,21.924 817.366,21.913 817.32,21.892C817.275,21.87 817.235,21.841 817.201,21.805C817.167,21.768 817.142,21.726 817.124,21.679C817.106,21.632 817.097,21.582 817.097,21.528L817.097,21.523C817.097,21.47 817.105,21.419 817.122,21.372C817.139,21.325 817.164,21.284 817.196,21.248C817.228,21.212 817.267,21.184 817.312,21.164C817.358,21.144 817.41,21.133 817.469,21.133C817.524,21.133 817.575,21.144 817.621,21.165C817.668,21.187 817.708,21.216 817.742,21.252C817.776,21.289 817.802,21.33 817.819,21.378C817.837,21.425 817.846,21.475 817.846,21.528L817.846,21.534Z" style="fill:white;fill-rule:nonzero;"/>
            </g>
            <g transform="matrix(4.16667,0,0,4.16667,0,4778.98)">
                <path d="M819.343,21.192L819.343,20.855C819.306,20.842 819.264,20.833 819.219,20.826C819.173,20.818 819.118,20.815 819.054,20.815C818.91,20.815 818.8,20.852 818.724,20.926C818.648,21 818.61,21.116 818.61,21.275L818.61,21.366L818.442,21.366L818.442,21.7L818.61,21.7L818.61,22.785L819.017,22.785L819.017,21.7L819.34,21.7L819.34,21.368L819.012,21.368L819.012,21.312C819.012,21.209 819.061,21.157 819.159,21.157C819.194,21.157 819.226,21.16 819.255,21.166C819.283,21.172 819.313,21.181 819.343,21.192Z" style="fill:white;fill-rule:nonzero;"/>
            </g>
            <g transform="matrix(4.16667,0,0,4.16667,0,4779.79)">
                <path d="M821.168,22.531L821.168,22.205C821.105,22.239 821.038,22.256 820.967,22.256C820.88,22.256 820.836,22.21 820.836,22.117L820.836,21.505L821.173,21.505L821.173,21.158L820.836,21.158L820.836,20.791L820.43,20.791L820.43,21.158L820.259,21.158L820.259,21.505L820.43,21.505L820.43,22.184C820.43,22.267 820.44,22.337 820.46,22.391C820.481,22.445 820.509,22.489 820.546,22.523C820.583,22.557 820.626,22.581 820.677,22.594C820.728,22.607 820.784,22.614 820.847,22.614C820.915,22.614 820.974,22.607 821.026,22.591C821.078,22.576 821.125,22.556 821.168,22.531Z" style="fill:white;fill-rule:nonzero;"/>
            </g>
            <g transform="matrix(4.16667,0,0,4.16667,0,4779.05)">
                <path d="M822.784,22.766L822.784,21.839C822.784,21.673 822.742,21.543 822.657,21.448C822.573,21.354 822.453,21.307 822.298,21.307C822.246,21.307 822.2,21.313 822.159,21.326C822.118,21.338 822.081,21.355 822.047,21.376C822.013,21.398 821.982,21.422 821.955,21.45C821.927,21.477 821.902,21.506 821.879,21.537L821.879,20.815L821.472,20.815L821.472,22.766L821.879,22.766L821.879,21.967C821.879,21.871 821.901,21.798 821.947,21.749C821.992,21.7 822.054,21.676 822.132,21.676C822.211,21.676 822.271,21.7 822.314,21.749C822.356,21.798 822.378,21.871 822.378,21.967L822.378,22.766L822.784,22.766Z" style="fill:white;fill-rule:nonzero;"/>
            </g>
            <g transform="matrix(4.16667,0,0,4.16667,0,4781.24)">
                <path d="M824.473,21.566L824.473,21.56C824.473,21.459 824.459,21.361 824.432,21.268C824.404,21.174 824.361,21.091 824.304,21.019C824.246,20.947 824.173,20.89 824.086,20.847C823.998,20.804 823.895,20.783 823.776,20.783C823.67,20.783 823.575,20.802 823.488,20.842C823.402,20.881 823.327,20.934 823.265,21.002C823.203,21.07 823.154,21.149 823.119,21.24C823.085,21.331 823.067,21.427 823.067,21.528L823.067,21.534C823.067,21.644 823.086,21.744 823.123,21.834C823.161,21.924 823.213,22.002 823.28,22.068C823.347,22.134 823.426,22.185 823.518,22.221C823.609,22.256 823.709,22.274 823.816,22.274C823.946,22.274 824.059,22.25 824.155,22.203C824.251,22.156 824.333,22.09 824.401,22.007L824.169,21.801C824.112,21.852 824.056,21.89 824.003,21.913C823.949,21.936 823.889,21.948 823.821,21.948C823.73,21.948 823.654,21.924 823.593,21.877C823.531,21.83 823.49,21.76 823.471,21.667L824.468,21.667C824.47,21.647 824.471,21.631 824.472,21.616C824.473,21.602 824.473,21.585 824.473,21.566ZM824.078,21.413L823.466,21.413C823.482,21.321 823.516,21.247 823.568,21.192C823.621,21.137 823.69,21.109 823.776,21.109C823.861,21.109 823.93,21.137 823.981,21.193C824.033,21.249 824.065,21.323 824.078,21.413Z" style="fill:white;fill-rule:nonzero;"/>
            </g>
        </g>
    </g>
</svg>
